# xmcd CD database file
#
# Track frame offsets:
#	150
#	26512
#	40903
#	65104
#	92478
#	107681
#	148568
#	168979
#
# Disc length: 2561 seconds
#
# Revision: 0
# Processed by: cddbd v1.5.1PL0 Copyright (c) Steve Scherf et al.
# Submitted via: CDex 1.51
#
DISCID=6509ff08
DTITLE=Yngwie J. Malmsteen's Rising Force - The Tales Of The Viking
DYEAR=1985
DGENRE=Heavy Metal
TTITLE0=Hey Joe-I'll See The Light, Tonight
TTITLE1=On The Run Again
TTITLE2=Far Beyond The Sun
TTITLE3=Keyboards Solo-Don't Let It End
TTITLE4=Soldier Without Faith
TTITLE5=Guitar Solo
TTITLE6=Black Star
TTITLE7=Desciples Of Hell
EXTD=YEAR: 1985
EXTT0=
EXTT1=
EXTT2=
EXTT3=
EXTT4=
EXTT5=
EXTT6=
EXTT7=
PLAYORDER=
